/* XPM */
static char * buttonright_xpm[] = {
"43 42 2 1",
" 	c none",
".	c black",
"                                           ",
"                                           ",
"                                           ",
"                                           ",  
"                                           ",
"                                           ",
"                                           ",
"    ........                   ........    ",
"     ........                 ........     ",
"      ........               ........      ",
"       ........             ........       ",
"        ........           ........        ",
"         ........         ........         ",
"          ........       ........          ",
"           ........     ........           ",  
"            ........   ........            ",
"             ........ ........             ",
"              ...............              ",
"               .............               ",
"                ...........                ",
"                 .........                 ",
"                 .........                 ",
"                ...........                ",
"               .............               ",
"              ...............              ",
"             ........ ........             ",
"            ........   ........            ",
"           ........     ........           ",
"          ........       ........          ",
"         ........         ........         ",
"        ........           ........        ",
"       ........             ........       ",
"      ........               ........      ",
"     ........                 ........     ",
"    ........                   ........    ",         
"                                           ",
"                                           ",
"                                           ",
"                                           ",
"                                           ", 
"                                           ",
"                                           "};
