/* XPM */
static char * buttonleft_xpm[] = {
"45 45 2 1",
" 	c none",
".	c black",
"                                             ",
"                                             ",
"                                             ",
"                      .                      ",
"                     ...                     ",
"                    .....                    ",
"                   .......                   ",
"                  .........                  ",
"                 ...........                 ",
"                .............                ",
"               ...............               ",
"              .................              ",
"             ...................             ",
"            .....................            ",
"           .......................           ",
"          .........................          ",
"         ...........................         ",
"        .............................        ",
"       ...............................       ",
"                                             ",
"                                             ",
"                                             ",
"                                             ",
"                                             ",
"                                             ",
"                                             ",
"       ...............................       ",
"        .............................        ",
"         ...........................         ",
"          .........................          ", 
"           .......................           ",
"            .....................            ",
"             ...................             ",
"              .................              ",
"                ...............              ",
"                .............                ",
"                 ...........                 ",
"                  .........                  ",
"                   .......                   ",
"                    .....                    ",
"                     ...                     ",
"                      .                      ",
"                                             ",
"                                             ",
"                                             "};
