/* XPM */
static char * menu_xpm[] = {
"34 34 2 1",
" 	s bg c #E0E0E0",
".	s fg c black",
"                                  ",  
"                                  ",
"                                  ",
"                                  ",
"                                  ",
"                                  ",
"                                  ",
"     .......................      ",
"     .......................      ",
"                                  ",
"                                  ",
"                                  ",
"                                  ",
"     ...................          ",
"     ...................          ",
"                                  ",
"                                  ",
"                                  ",
"                                  ",
"     ...................          ",
"     ...................          ",
"                                  ",
"                                  ",
"                                  ",
"                                  ",
"     ........................     ",
"     ........................     ",
"                                  ", 
"                                  ",
"                                  ",  
"                                  ",
"                                  ",
"                                  ",
"                                  "};
