/* XPM */
static char *winlist[]={
"37 37 2 1",
". c None",
"# c #8b0000",
".....................................",
".....................................",
".....................................",
".....................................",
"....##########.......................",
"....##########.......................",
"....##########.......................",
"....##########.......................",
"....##########.......................",
"....##########.......................",
"....##########.......................",
"....##########.......................",
"....##########.......................",
"....##########.......................",
"....#############################....",
"....#############################....",
"....#############################....",
"....#############################....",
"....#############################....",
"....#############################....",
"....#############################....",
"....#############################....",
"....#############################....",
"....##########.......................",
"....##########.......................",
"....##########.......................",
"....##########.......................",
"....##########.......................",
"....##########.......................",
"....##########.......................",
"....##########.......................",
"....##########.......................",
"....##########.......................",
".....................................",
".....................................",
".....................................",
"....................................."};
