/* XPM */
static char * winlist_xpm[] = {
"37 37 3 1",
" 	c none",
".	c darkred",
"a      c blue",
"                                     ",
"                                     ",
"                                     ", 
"                                     ",
"    ....................             ",
"    .aaaaaaaaaaaaaaaaaa.             ",
"    .aaaaaaaaaaaaaaaaaa.             ",
"    .aaaaaaaaaaaaaaaaaa.             ",
"    .aaaaaaaaaaaaaaaaaa.             ",
"    .aaaaaaaaaaaaaaaaaa.             ",
"    .aaaaaaaaaaaaaaaaaa.             ",
"    .aaaaaa.....................     ",
"    .aaaaaa.....................     ",
"    .aaaaaa.....................     ",
"    .aaaaaa.....................     ",
"    .aaaaaa.....................     ",
"    .aaaaaa.....................     ",
"    .aaaaaa.....................     ",
"    .aaaaaa.....................     ",
"    .aaaaaa.....................     ",
"    .aaaaaa.....................     ",
"    .aaaaaa.....................     ",
"    .aaaaaa.....................     ",
"    .aaaaaa.....................     ",
"    .aaaaaa.....................     ",
"    ............................     ",
"           .....................     ",
"           .....................     ",
"           .....................     ",
"           .....................     ",
"           .....................     ",
"           .....................     ",
"                                     ",
"                                     ",
"                                     ",
"                                     ",
"                                     "};
